<svg version="1.2" xmlns="http://www.w3.org/2000/svg" viewBox="0 0 3873 3873" width="3873" height="3873">
	<title>vecteezy_phonebook-creative-icon-design_15961275-ai</title>
	<defs>
		<linearGradient id="g1" x2="1" gradientUnits="userSpaceOnUse" gradientTransform="matrix(2163.041,-2017.068,2014.702,2160.504,-109.736,1911.092)">
			<stop offset="0" stop-color="#fff8b8"/>
			<stop offset="1" stop-color="#f6c916"/>
		</linearGradient>
	</defs>
	<style>
		.s0 { opacity: .9;fill-opacity: .9;fill: #4bf62e } 
		.s1 { fill: url(#g1) } 
	</style>
	<g id="_Artboards_">
	</g>
	<g id="Master Layer 2">
		<path id="&lt;Path&gt;" class="s0" d="m1936.5 0c1065.1 0 1936.5 871.4 1936.5 1936.5 0 1065.1-871.4 1936.5-1936.5 1936.5-1065.1 0-1936.5-871.4-1936.5-1936.5 0-1065.1 871.4-1936.5 1936.5-1936.5z"/>
	</g>
	<g id="Layer 1" style="opacity: .7">
		<path id="&lt;Compound Path&gt;" fill-rule="evenodd" class="s1" d="m2790.5 2988.1h-1316.1v-185.5h1436.2v65.5c0 66.1-53.9 120-120.1 120zm192.4 0h-65.5c29.6-31.3 47.9-73.6 47.9-120v-1861.9c0-46.5-18.3-88.8-47.9-120.1h65.5c66.1 0 120 53.8 120 120v1861.9c0 66.2-53.8 120.1-120 120.1zm-1824-1689h-281.5c-59.2 0-107.3-48.2-107.3-107.4 0-59.1 48.1-107.3 107.3-107.3h281.5c59.2 0 107.3 48.2 107.3 107.3 0 59.2-48.1 107.4-107.3 107.4zm0 372.6h-281.5c-59.2 0-107.3-48.1-107.3-107.3 0-59.2 48.1-107.3 107.3-107.3h281.5c59.2 0 107.3 48.1 107.3 107.3 0 59.2-48.1 107.3-107.3 107.3zm0 372.7h-281.5c-59.2 0-107.3-48.1-107.3-107.3 0-59.2 48.1-107.3 107.3-107.3h281.5c59.2 0 107.3 48.1 107.3 107.3 0 59.2-48.1 107.3-107.3 107.3zm0 372.7h-281.5c-59.2 0-107.3-48.2-107.3-107.3 0-59.2 48.1-107.4 107.3-107.4h281.5c59.2 0 107.3 48.2 107.3 107.4 0 59.1-48.1 107.3-107.3 107.3zm0 372.7h-281.5c-59.2 0-107.3-48.2-107.3-107.4 0-59.1 48.1-107.3 107.3-107.3h281.5c59.2 0 107.3 48.2 107.3 107.3 0 59.2-48.1 107.4-107.3 107.4zm1751.7-1490.8v1276.1h-1436.2v-1276.1zm-993.3 983.3c0-15-12.3-27.3-27.4-27.3h-329.6c-15.1 0-27.4 12.3-27.4 27.3 0 15.1 12.3 27.4 27.4 27.4h329.6c15.1 0 27.4-12.3 27.4-27.4zm461.2 170.8c42.9 0 83.2-16.6 113.4-46.8l154.3-154.3c28-28 43.5-65.4 43.5-105.3 0-39.9-15.5-77.2-43.5-105.3l-76.1-76.1c-28-28-65.4-43.4-105.3-43.4-39.9 0-77.2 15.4-105.3 43.4l-40.9 40.9-267.1-267.1 40.9-40.9c28-28 43.5-65.4 43.5-105.3 0-39.9-15.5-77.3-43.5-105.3l-76.1-76.1c-28-28-65.4-43.5-105.3-43.5-39.8 0-77.3 15.5-105.3 43.5l-154.3 154.3c-62.5 62.5-62.5 164.3 0 226.8l613.7 613.7c30.1 30.2 70.4 46.8 113.4 46.8zm-735.5-72.5c0-15.1-12.3-27.4-27.4-27.4h-55.3c-15.1 0-27.4 12.3-27.4 27.4 0 15 12.3 27.3 27.4 27.3h55.3c15.1 0 27.4-12.3 27.4-27.3zm434.4 98.2c0-15.1-12.3-27.3-27.4-27.3h-55.3c-15.1 0-27.3 12.2-27.3 27.3 0 15.1 12.2 27.3 27.3 27.3h55.3c15.1 0 27.4-12.2 27.4-27.3zm-160.1 0c0-15.1-12.3-27.3-27.4-27.3h-329.6c-15.1 0-27.4 12.2-27.4 27.3 0 15.1 12.3 27.3 27.4 27.3h329.6c15.1 0 27.4-12.2 27.4-27.3zm60.3-1028.7l76.1 76.1c17.7 17.7 27.5 41.4 27.5 66.7 0 25.2-9.8 48.9-27.5 66.6l-60.2 60.2c-10.7 10.7-10.7 28 0 38.7l305.8 305.8c10.7 10.7 28 10.7 38.7 0l60.2-60.2c17.7-17.7 41.4-27.5 66.6-27.5 25.3 0 49 9.8 66.7 27.5l76.1 76.1c17.7 17.7 27.4 41.3 27.4 66.6 0 25.3-9.7 48.9-27.4 66.6l-154.4 154.4c-19.8 19.8-46.4 30.8-74.7 30.8-28.4 0-54.9-11-74.8-30.8l-613.6-613.7c-41.3-41.2-41.3-108.3 0-149.5l154.3-154.4c17.7-17.7 41.3-27.4 66.6-27.4 25.3 0 48.9 9.7 66.6 27.4zm99.8 832.2c0-15-12.3-27.3-27.4-27.3h-55.3c-15.1 0-27.3 12.3-27.3 27.3 0 15.1 12.2 27.4 27.3 27.4h55.3c15.1 0 27.4-12.3 27.4-27.4zm695.9-862.8c0-15.1-12.3-27.4-27.3-27.4h-55.4c-15.1 0-27.4 12.3-27.4 27.4 0 15.1 12.3 27.3 27.4 27.3h55.4c15 0 27.3-12.2 27.3-27.3zm-160.1 0c0-15.1-12.3-27.4-27.4-27.4h-329.7c-15 0-27.3 12.3-27.3 27.4 0 15.1 12.2 27.3 27.3 27.3h329.7c15.1 0 27.4-12.2 27.4-27.3zm160.1 98.2c0-15.1-12.3-27.3-27.3-27.3h-329.7c-15.1 0-27.4 12.2-27.4 27.3 0 15.1 12.3 27.3 27.4 27.3h329.7c15 0 27.3-12.2 27.3-27.3zm-434.5 0c0-15.1-12.2-27.3-27.3-27.3h-55.4c-15 0-27.3 12.2-27.3 27.3 0 15.1 12.2 27.3 27.3 27.3h55.4c15.1 0 27.3-12.2 27.3-27.3zm434.5 98.2c0-15.1-12.3-27.3-27.3-27.3h-55.4c-15.1 0-27.4 12.2-27.4 27.3 0 15.1 12.3 27.4 27.4 27.4h55.4c15 0 27.3-12.3 27.3-27.4zm-160.1 0c0-15.1-12.3-27.3-27.4-27.3h-329.7c-15 0-27.3 12.2-27.3 27.3 0 15.1 12.2 27.4 27.3 27.4h329.7c15.1 0 27.4-12.3 27.4-27.4zm-1561.5 1372.2c-66.2 0-120.1-53.9-120.1-120v-23.7h227.3c89.3 0 162-72.6 162-162 0-89.3-72.7-162-162-162h-227.3v-48.7h227.3c89.3 0 162-72.6 162-161.9 0-89.4-72.7-162-162-162h-227.3v-48.7h227.3c89.3 0 162-72.7 162-162 0-89.4-72.7-162-162-162h-227.3v-48.7h227.3c89.3 0 162-72.6 162-162 0-89.3-72.7-162-162-162h-227.3v-48.7h227.3c89.3 0 162-72.6 162-162 0-89.3-72.7-161.9-162-161.9l-227.3-0.1v-23.5c0-66.2 53.9-120.1 120.1-120.1h368v2102zm422.6-2102h1316.2c66.2 0 120 53.9 120 120.1v65.4h-1436.2zm603.1 1494.5c0-15.1-12.3-27.4-27.4-27.4h-329.6c-15.1 0-27.4 12.3-27.4 27.4 0 15.1 12.3 27.3 27.4 27.3h329.6c15.1 0 27.4-12.2 27.4-27.3zm833.1 249.2v118.1h-1436.2v-118.1zm0-1503.5v118.1h-1436.2v-118.1z"/>
	</g>
</svg>